<svg width="40" height="40" viewBox="0 0 40 40" fill="none" xmlns="http://www.w3.org/2000/svg">
<path opacity="0.4" d="M30.5495 9.44992L10.9828 29.0166C10.2495 29.7499 9.01615 29.6499 8.41615 28.7832C6.34948 25.7665 5.13281 22.1999 5.13281 18.5332V11.2166C5.13281 9.84991 6.16615 8.29992 7.43282 7.78325L16.7162 3.98325C18.8162 3.11659 21.1495 3.11659 23.2495 3.98325L29.9828 6.73324C31.0995 7.18324 31.3828 8.61658 30.5495 9.44992Z" fill="#2563EB"/>
<path d="M32.1154 11.7332C33.1987 10.8165 34.8487 11.5999 34.8487 13.0165V18.5332C34.8487 26.6832 28.9321 34.3165 20.8487 36.5499C20.2987 36.6999 19.6987 36.6999 19.1321 36.5499C16.7654 35.8832 14.5654 34.7666 12.682 33.2999C11.882 32.6832 11.7987 31.5166 12.4987 30.7999C16.1321 27.0832 26.7654 16.2499 32.1154 11.7332Z" fill="#2563EB"/>
</svg>
